<?xml version="1.0" standalone="no"?>
<!DOCTYPE svg PUBLIC "-//W3C//DTD SVG 20010904//EN"
 "http://www.w3.org/TR/2001/REC-SVG-20010904/DTD/svg10.dtd">
<svg version="1.0" xmlns="http://www.w3.org/2000/svg"
 width="433.000000pt" height="577.000000pt" viewBox="0 0 433.000000 577.000000"
 preserveAspectRatio="xMidYMid meet">

<g transform="translate(0.000000,577.000000) scale(0.100000,-0.100000)"
fill="#000000" stroke="none">
<path d="M1830 5383 c-78 -8 -178 -38 -231 -68 -31 -18 -66 -36 -78 -40 -24
-7 -85 -79 -95 -112 -4 -12 -7 -77 -8 -145 -1 -131 14 -205 52 -263 11 -16 20
-46 20 -65 1 -19 7 -48 14 -65 13 -29 13 -28 8 20 -4 41 -2 48 9 37 7 -7 13
-33 14 -59 0 -28 5 -48 13 -51 10 -3 12 13 11 65 -2 80 24 236 43 265 12 18
26 22 89 23 97 4 112 0 99 -26 -9 -16 -22 -19 -74 -19 -54 0 -65 -3 -84 -25
-22 -25 -29 -46 -14 -44 4 1 16 1 27 0 19 -2 18 -3 -3 -11 -27 -11 -36 -32
-28 -65 4 -16 13 -25 26 -25 11 0 20 -4 20 -10 0 -5 18 -14 39 -21 34 -10 42
-9 56 5 9 9 25 21 36 26 10 6 24 30 30 55 l11 43 38 -26 c21 -15 41 -38 45
-52 4 -14 15 -34 24 -45 21 -23 35 -82 21 -90 -5 -3 -19 0 -30 7 -18 11 -23
10 -34 -4 -14 -20 -41 -24 -51 -8 -3 6 -15 10 -26 10 -24 0 -26 -30 -1 -30 16
-1 16 -1 0 -14 -10 -7 -18 -18 -18 -23 0 -5 -11 -15 -25 -21 -24 -11 -25 -11
-23 28 1 22 -1 42 -4 45 -2 3 -15 -16 -28 -42 -28 -56 -29 -106 -5 -169 15
-39 19 -43 36 -33 11 5 22 24 26 40 8 43 39 36 35 -8 -4 -36 14 -77 29 -68 17
11 9 -4 -17 -30 -15 -15 -36 -28 -47 -31 -11 -2 -17 -1 -14 2 3 4 -3 15 -14
27 -10 11 -19 27 -19 36 0 8 -3 11 -7 8 -3 -4 -12 -2 -20 4 -10 9 -13 7 -13
-8 0 -10 4 -23 9 -28 5 -6 14 -27 21 -47 6 -21 16 -38 21 -38 5 0 23 -13 40
-30 17 -16 40 -32 50 -35 22 -7 14 -35 -11 -35 -28 0 -83 27 -112 55 -16 14
-28 23 -28 20 0 -16 83 -204 105 -238 15 -22 30 -60 34 -86 8 -59 35 -69 45
-16 4 20 14 38 22 41 47 14 47 14 34 29 -20 24 16 19 42 -5 12 -11 34 -20 48
-20 22 0 31 8 46 42 10 24 52 92 92 152 83 127 91 158 51 202 -13 13 -19 35
-19 64 l0 43 -38 -41 c-22 -23 -44 -42 -50 -42 -6 0 -25 -12 -42 -27 -25 -21
-34 -23 -40 -13 -6 9 0 24 16 43 13 16 24 37 24 47 0 10 6 20 13 23 8 2 12 25
12 65 0 34 2 62 5 62 3 0 5 19 5 43 0 28 -8 53 -23 75 -23 31 -23 32 -3 32 11
0 26 9 34 20 7 10 25 23 39 29 16 6 27 19 31 38 7 37 -6 59 -43 71 -27 10 -34
20 -27 39 1 4 20 6 41 6 52 -1 69 -25 86 -119 13 -77 9 -176 -11 -234 -14 -40
-4 -52 13 -14 7 16 18 32 25 37 7 4 10 14 7 22 -4 9 3 23 16 33 40 32 65 152
41 191 -5 8 -6 21 -1 30 48 99 34 318 -27 400 -55 75 -120 134 -178 162 -54
26 -70 29 -150 27 -49 0 -106 -3 -125 -5z m100 -523 c0 -5 -4 -10 -9 -10 -6 0
-13 5 -16 10 -3 6 1 10 9 10 9 0 16 -4 16 -10z m65 -380 c3 -5 1 -10 -4 -10
-6 0 -11 5 -11 10 0 6 2 10 4 10 3 0 8 -4 11 -10z m-20 -80 c-3 -5 -11 -10
-16 -10 -6 0 -7 5 -4 10 3 6 11 10 16 10 6 0 7 -4 4 -10z"/>
<path d="M1612 4221 c-17 -28 -42 -56 -54 -64 -13 -8 -102 -35 -198 -61 -411
-108 -412 -108 -432 -141 -10 -16 -21 -41 -24 -55 -4 -14 -21 -59 -40 -101
-18 -41 -40 -107 -48 -145 -8 -38 -29 -109 -46 -159 -40 -117 -76 -260 -90
-360 -6 -44 -20 -109 -30 -145 -10 -36 -21 -85 -25 -110 -4 -25 -12 -54 -18
-65 -12 -23 -31 -182 -29 -245 1 -25 4 -175 6 -335 5 -320 15 -459 40 -550 31
-116 69 -220 85 -232 19 -14 61 -17 61 -4 0 5 9 7 20 4 27 -7 52 -54 88 -164
62 -193 64 -211 67 -704 1 -247 6 -480 10 -517 l8 -68 313 0 314 0 5 23 c2 12
27 121 54 242 27 121 68 303 91 405 22 101 43 186 45 189 16 15 110 -436 130
-619 3 -30 13 -97 22 -148 l16 -92 260 2 261 3 8 30 c24 88 59 312 68 442 6
85 19 180 30 223 12 41 25 129 30 195 14 186 28 253 60 290 10 11 23 48 31 82
16 77 33 84 90 35 l41 -36 19 25 c10 13 19 30 19 37 0 7 36 83 80 169 44 87
80 169 80 183 1 14 7 52 15 85 8 33 15 81 15 106 0 26 6 65 14 87 18 51 40
331 31 391 -4 25 -7 145 -6 266 2 204 -18 552 -50 865 -21 217 -62 351 -115
380 -33 19 -411 160 -510 191 -52 16 -69 28 -106 72 -25 28 -50 61 -55 72 -18
32 -27 -58 -26 -240 1 -88 3 -441 4 -784 l4 -624 -38 -32 c-37 -32 -43 -65
-11 -65 35 0 42 -102 14 -198 -11 -37 -10 -45 3 -55 9 -8 19 -45 26 -103 15
-124 17 -119 -36 -147 -59 -30 -128 -38 -389 -42 -211 -3 -194 -6 -390 54
l-21 6 23 110 c72 347 111 639 124 925 30 655 52 853 99 875 11 5 21 16 21 23
0 10 -5 10 -22 -2 -33 -24 -36 -20 -27 32 8 44 28 333 23 340 -1 2 -16 -20
-32 -47z m-525 -1493 c-3 -87 -14 -182 -27 -243 -20 -97 -47 -175 -59 -175 -9
0 -61 68 -61 80 0 6 11 26 24 43 38 50 56 119 56 210 0 71 4 92 32 154 18 40
35 73 37 73 2 0 1 -64 -2 -142z m730 -886 c6 -4 -22 -7 -63 -7 -40 0 -74 3
-74 8 0 9 121 9 137 -1z m83 -2 c-8 -5 -26 -9 -40 -9 -23 0 -23 1 -5 9 11 5
29 9 40 9 17 1 17 -1 5 -9z m20 -200 c0 -5 -12 -10 -27 -10 -22 0 -25 2 -13
10 20 13 40 13 40 0z m-133 -7 c-20 -2 -52 -2 -70 0 -17 2 0 4 38 4 39 0 53
-2 32 -4z m70 1 c-3 -3 -12 -4 -19 -1 -8 3 -5 6 6 6 11 1 17 -2 13 -5z m-1057
-97 c0 -7 -16 -21 -36 -30 -27 -13 -34 -22 -29 -35 5 -13 3 -14 -6 -5 -17 17
-5 40 33 63 39 24 38 23 38 7z"/>
<path d="M2180 3915 c0 -8 5 -15 10 -15 6 0 10 7 10 15 0 8 -4 15 -10 15 -5 0
-10 -7 -10 -15z"/>
</g>
</svg>
